<svg width="522" height="523" viewBox="0 0 522 523" fill="none" xmlns="http://www.w3.org/2000/svg">
<path d="M514.196 324.135C479.332 463.982 337.697 549.051 197.833 514.192C58.0426 479.332 -27.062 337.707 7.81843 197.892C42.6662 58.0452 184.292 -27.0489 324.107 7.81087C463.955 42.6707 549.052 184.312 514.188 324.135H514.196Z" fill="#00B3F0"/>
<path d="M376.094 223.822C381.29 189.092 354.844 170.423 318.683 157.968L330.413 110.923L301.773 103.786L290.353 149.592C282.724 147.718 275.078 145.918 267.415 144.192L278.916 98.085L250.284 90.9482L238.554 137.977C232.322 136.558 226.204 135.155 220.266 133.679L220.298 133.532L180.801 123.671L173.182 154.257C173.182 154.257 194.432 159.126 193.983 159.428C205.583 162.324 207.679 169.999 207.328 176.083L193.967 229.678C194.766 229.882 195.802 230.184 196.944 230.632L193.918 229.882L175.189 304.96C173.769 308.484 170.172 313.769 162.056 311.762C162.349 312.178 141.246 306.567 141.246 306.567L127.028 339.355L164.299 348.653C171.232 350.382 178.027 352.201 184.716 353.914L172.864 401.497L201.471 408.634L213.201 361.548C221.016 363.677 228.602 365.626 236.025 367.478L224.328 414.335L252.96 421.472L264.821 373.978C313.658 383.219 350.382 379.492 365.84 335.334C378.296 299.773 365.22 279.26 339.525 265.875C358.237 261.553 372.333 249.245 376.094 223.822ZM310.648 315.563C301.797 351.124 241.915 331.908 222.501 327.08L238.228 264.04C257.642 268.893 319.898 278.485 310.648 315.563ZM319.507 223.316C311.431 255.656 261.59 239.221 245.423 235.192L259.681 178.016C275.849 182.045 327.917 189.565 319.507 223.308V223.316Z" fill="white"/>
</svg>
